<svg width="30" height="31" viewBox="0 0 30 31" fill="none" xmlns="http://www.w3.org/2000/svg">
<g clip-path="url(#clip0)">
<path d="M19.8862 15.2864L30 21.6459V8.6582L19.8862 15.2864Z" fill="#A8C114"/>
<path d="M0 8.6582V21.6459L10.1138 15.2864L0 8.6582Z" fill="#A8C114"/>
<path d="M28.125 4.87598H1.87502C0.939399 4.87598 0.196899 5.56975 0.0562744 6.46308L15 16.2561L29.9438 6.46308C29.8031 5.56975 29.0606 4.87598 28.125 4.87598Z" fill="#A8C114"/>
<path d="M18.1688 16.413L15.5157 18.1512C15.3582 18.2537 15.1801 18.3041 15.0001 18.3041C14.8201 18.3041 14.6419 18.2537 14.4844 18.1512L11.8313 16.4111L0.0600586 23.817C0.204434 24.7028 0.943184 25.391 1.87506 25.391H28.1251C29.0569 25.391 29.7957 24.7028 29.9401 23.817L18.1688 16.413Z" fill="#A8C114"/>
</g>
<defs>
<clipPath id="clip0">
<rect width="30" height="29.8397" fill="white" transform="translate(0 0.213867)"/>
</clipPath>
</defs>
</svg>
