<svg width="20" height="18" viewBox="0 0 20 18" fill="none" xmlns="http://www.w3.org/2000/svg">
<path d="M0.00425227 12.8781C0.00425227 15.5075 2.13572 17.639 4.76514 17.639C7.3946 17.639 9.52606 15.5075 9.52606 12.8781C9.52606 10.2486 7.3946 8.11718 4.76514 8.11718C4.22475 8.11718 3.70747 8.21139 3.22323 8.3774C4.29463 2.23261 9.08638 -1.73007 4.64444 1.5313C-0.280999 5.14779 -0.00102286 12.7326 0.00448847 12.8716C0.00448847 12.8737 0.00425227 12.8757 0.00425227 12.8781Z" fill="#115A2F"/>
<path d="M10.4782 12.8781C10.4782 15.5075 12.6097 17.639 15.2391 17.639C17.8686 17.639 20 15.5075 20 12.8781C20 10.2486 17.8685 8.11718 15.2391 8.11718C14.6987 8.11718 14.1814 8.21139 13.6972 8.3774C14.7686 2.23261 19.5603 -1.73007 15.1184 1.5313C10.193 5.14779 10.4729 12.7326 10.4784 12.8716C10.4784 12.8737 10.4782 12.8757 10.4782 12.8781Z" fill="#115A2F"/>
</svg>
